Coordinates
version=1
nRows=27
nColumns=12
inDegrees=yes

Units are S.I. units (second, meters, Newtons, ...)
Angles are in degrees

endheader
time	SC_y	SC_z	SC_x	AC_y	AC_z	AC_x	GH_y	GH_z	GH_yy	EL_x	PS_y
       0.0              -56.32          21.42          41.54          36.34          4.996          3.259          52.76         -13.43           64.0          41.94          136.2
   0.03818              -56.32          21.42          41.54          36.34          4.994          3.257          52.76         -13.41          63.99          41.94          136.2
   0.07636              -56.31          21.42          41.55          36.34          4.991          3.256          52.76          -13.4          63.98          41.94          136.2
    0.1145              -56.31          21.43          41.55          36.35          4.989          3.254          52.77         -13.38          63.98          41.93          136.1
    0.1527               -56.3          21.43          41.55          36.35          4.986          3.252          52.77         -13.37          63.97          41.93          136.1
    0.1909               -56.3          21.43          41.56          36.36          4.983           3.25          52.78         -13.35          63.96          41.93          136.1
    0.2291              -56.29          21.43          41.56          36.36           4.98          3.248          52.78         -13.33          63.95          41.93          136.1
    0.2672              -56.29          21.43          41.57          36.37          4.977          3.245          52.79         -13.31          63.94          41.93          136.1
    0.3054              -56.28          21.43          41.57          36.37          4.974          3.243          52.79         -13.29          63.93          41.92          136.1
    0.3436              -56.27          21.43          41.58          36.38           4.97           3.24           52.8         -13.26          63.92          41.92          136.0
    0.3818              -56.26          21.43          41.58          36.38          4.966          3.237           52.8         -13.24           63.9          41.92          136.0
      0.42              -56.25          21.44          41.59          36.39          4.962          3.234          52.81         -13.21          63.89          41.92          136.0
    0.4581              -56.25          21.44           41.6           36.4          4.957          3.231          52.82         -13.18          63.88          41.91          136.0
    0.4963              -56.24          21.44          41.61          36.41          4.952          3.227          52.83         -13.15          63.86          41.91          135.9
    0.5345              -56.23          21.44          41.61          36.41          4.947          3.224          52.84         -13.12          63.84          41.91          135.9
    0.5727              -56.21          21.44          41.62          36.42          4.941          3.219          52.84         -13.08          63.82           41.9          135.9
    0.6109               -56.2          21.45          41.63          36.43          4.934          3.215          52.85         -13.04           63.8           41.9          135.8
     0.649              -56.19          21.45          41.64          36.44          4.927           3.21          52.87          -13.0          63.78          41.89          135.8
    0.6872              -56.17          21.45          41.65          36.46           4.92          3.204          52.88         -12.95          63.76          41.89          135.8
    0.7254              -56.16          21.46          41.67          36.47          4.912          3.198          52.89          -12.9          63.73          41.88          135.7
    0.7636              -56.14          21.46          41.68          36.48          4.902          3.192          52.91         -12.84           63.7          41.88          135.7
    0.8017              -56.12          21.46           41.7           36.5          4.892          3.185          52.92         -12.78          63.67          41.87          135.6
    0.8399               -56.1          21.47          41.71          36.52          4.881          3.177          52.94         -12.71          63.64          41.86          135.5
    0.8781              -56.07          21.47          41.73          36.54          4.869          3.168          52.96         -12.63           63.6          41.86          135.5
    0.9163              -56.05          21.48          41.75          36.56          4.855          3.158          52.98         -12.54          63.56          41.85          135.4
    0.9545              -56.02          21.48          41.78          36.58           4.84          3.147          53.01         -12.45          63.51          41.84          135.3
    0.9926              -55.98          21.49           41.8          36.61          4.823          3.135          53.03         -12.34          63.45          41.83          135.2
